<svg xmlns="http://www.w3.org/2000/svg" viewBox="0 0 249.68 44.39"><defs><style>.cls-1{fill:#1d1d1b;}.cls-2{fill:#075ea8;}</style></defs><title>Element 1</title><g id="Ebene_2" data-name="Ebene 2"><g id="Ebene_1-2" data-name="Ebene 1"><path class="cls-1" d="M1.33,19.33a11,11,0,0,1,5.15-1.26c4.82,0,6.69,2.62,6.69,7V36.6H11V34.48c-.61.94-2.16,2.31-5.26,2.31C2.34,36.79,0,34.55,0,31.46c0-3.57,3-5.55,7.42-5.55H11v-.82c0-3.1-1.12-4.93-4.54-4.93A9.84,9.84,0,0,0,1.33,21.7Zm6.09,8.6c-3.64,0-5.08,1.66-5.08,3.46s1.26,3.38,3.89,3.38c2.95,0,4.75-1.84,4.75-4.21V27.93Z"/><path class="cls-1" d="M20.63,21.49a6,6,0,0,1,5.79-3.42,5.48,5.48,0,0,1,5.8,5.79V36.6H30v-12c0-2.92-1.69-4.36-3.92-4.36-2.77,0-5.47,2.23-5.47,6.34V36.6h-2.2V18.36h2.2Z"/><path class="cls-1" d="M52,11.16V36.6H49.79V33.94a6.35,6.35,0,0,1-5.66,3c-5.11,0-7.77-4.35-7.77-9.21,0-5.65,3.24-9.61,7.85-9.61a6.5,6.5,0,0,1,5.58,3V11.16ZM49.79,27.39c0-5.69-3.42-7.23-5.51-7.23-3.1,0-5.62,2.48-5.62,7.55,0,4.22,2.31,7.1,5.4,7.1C46.69,34.81,49.79,33.22,49.79,27.39Z"/><path class="cls-1" d="M59.65,21.45a5.23,5.23,0,0,1,5.11-3.31c.29,0,.58,0,.9.07v2.23a4.77,4.77,0,0,0-1.44-.21c-2.73,0-4.57,3.24-4.57,6.19V36.6H57.46V18.36h2.19Z"/><path class="cls-1" d="M81.83,35.7a12.61,12.61,0,0,1-5,1.09c-5.37,0-9.15-3.64-9.15-9.22,0-5.94,3.35-9.43,8-9.43C80,18.14,83,21.09,83,26.53a13.12,13.12,0,0,1-.15,1.94H70c.32,4.1,3,6.23,6.94,6.23a9.9,9.9,0,0,0,4.94-1.23ZM80.71,25.63c0-3.35-2-5.44-5.11-5.44S70.31,22.31,70,26.45H80.71Z"/><path class="cls-1" d="M87.84,19.33A11,11,0,0,1,93,18.07c4.82,0,6.69,2.62,6.69,7V36.6H97.49V34.48c-.62.94-2.16,2.31-5.26,2.31-3.38,0-5.72-2.24-5.72-5.33,0-3.57,3-5.55,7.41-5.55h3.57v-.82c0-3.1-1.12-4.93-4.54-4.93a9.84,9.84,0,0,0-5.11,1.54Zm6.08,8.6c-3.63,0-5.07,1.66-5.07,3.46s1.26,3.38,3.88,3.38c3,0,4.76-1.84,4.76-4.21V27.93Z"/><path class="cls-1" d="M114.48,21.2a10,10,0,0,0-4.57-1c-2.13,0-3.42,1.11-3.42,2.66,0,2,1.83,2.74,3.85,3.56,2.73,1.12,5.22,2.45,5.22,5.48s-2.2,4.89-5.87,4.89a12.39,12.39,0,0,1-5.33-1.08V33.47a10.86,10.86,0,0,0,5.19,1.37c2.55,0,3.74-1.19,3.74-2.73,0-2.06-1.58-2.88-4.25-3.93-2.3-.9-4.79-2.19-4.79-5.18s2.52-4.82,5.69-4.82a10.84,10.84,0,0,1,4.54.82Z"/><path class="cls-1" d="M130,36.6l-6.55-9.43V36.6h-4.32v-25h4.32V26.92l6.44-8.56h5l-6.69,8.71,6.83,9.53Z"/><path class="cls-1" d="M142.27,21.49a5.78,5.78,0,0,1,5.61-3.35c3.6,0,5.91,2.27,5.91,6.33V36.6h-4.32V25.37c0-2.44-1.3-3.63-3.21-3.63-2.08,0-4,1.65-4,5.07V36.6H138V18.36h4.32Z"/><path class="cls-1" d="M174,18.36V36.6h-4.36v-3c-.93,2.05-2.88,3.17-5.61,3.17-3.64,0-5.87-2.17-5.87-6.09V18.36h4.32V29.69c0,2.34,1.22,3.53,3.17,3.53,2.37,0,4-1.55,4-5.07V18.36Z"/><path class="cls-1" d="M183.88,30.88a2.11,2.11,0,0,0,2.31,2.34,5,5,0,0,0,2.52-.75v3.7a8.67,8.67,0,0,1-3.24.62c-4,0-5.91-2.13-5.91-6V21.59h-2.73V18.36h2.73V14h4.32v4.4h4.54v3.23h-4.54Z"/><path class="cls-1" d="M196.59,21.45c.94-2.09,2.77-3.31,5.58-3.31,3.42,0,5.94,2.12,5.94,6.51v12h-4.32V25.41c0-2.38-1.33-3.67-3.17-3.67-1.62,0-4,1-4,5.07V36.6h-4.32V11.16h4.32Z"/><path class="cls-2" d="M221.56,21.88l-8.56,12a3.17,3.17,0,0,0,.74,4.41l7.72,5.51a3.15,3.15,0,0,0,4.4-.74l8.57-12a3.17,3.17,0,0,0-.74-4.41L226,21.14A3.17,3.17,0,0,0,221.56,21.88Zm8.4,7.28a.52.52,0,0,1,.12.73L224,38.47a1.57,1.57,0,0,1-2.2.37l-4.29-3.06a.53.53,0,0,1-.12-.74l6.12-8.57a1.57,1.57,0,0,1,2.2-.37Z"/><path class="cls-2" d="M236.23,1.33l-8.57,12a3.17,3.17,0,0,0,.74,4.41l7.72,5.51a3.17,3.17,0,0,0,4.41-.74l8.56-12a3.17,3.17,0,0,0-.74-4.41L240.63.59A3.14,3.14,0,0,0,236.23,1.33Zm8.39,7.28a.52.52,0,0,1,.12.73l-6.11,8.57a1.59,1.59,0,0,1-2.21.38l-4.29-3.06a.53.53,0,0,1-.12-.74l6.12-8.57a1.56,1.56,0,0,1,2.2-.37Z"/><rect class="cls-2" x="221.61" y="20.09" width="18.86" height="4.21" rx="2.11" transform="translate(78.8 197.4) rotate(-54.5)"/></g></g></svg>