<svg id="Ebene_1" data-name="Ebene 1" xmlns="http://www.w3.org/2000/svg" viewBox="0 0 249.68 44.39"><defs><style>.cls-1{fill:#1d1d1b;}.cls-2{fill:#075ea8;}</style></defs><title>logo</title><path class="cls-1" d="M202.37,240.62a10.91,10.91,0,0,1,5.14-1.26c4.83,0,6.7,2.63,6.7,7V257.9H212v-2.13c-.61.94-2.16,2.31-5.25,2.31-3.38,0-5.72-2.24-5.72-5.33,0-3.56,3-5.54,7.41-5.54H212v-.83c0-3.1-1.11-4.93-4.53-4.93a9.82,9.82,0,0,0-5.11,1.54Zm6.08,8.6c-3.64,0-5.07,1.66-5.07,3.46s1.25,3.38,3.88,3.38c3,0,4.75-1.83,4.75-4.21v-2.63Z" transform="translate(-201.04 -221.29)"/><path class="cls-1" d="M221.66,242.78a6,6,0,0,1,5.8-3.42,5.47,5.47,0,0,1,5.79,5.79V257.9h-2.19V245.84c0-2.92-1.69-4.36-3.93-4.36-2.77,0-5.47,2.23-5.47,6.34V257.9h-2.19V239.65h2.19Z" transform="translate(-201.04 -221.29)"/><path class="cls-1" d="M253,232.45V257.9h-2.2v-2.67a6.32,6.32,0,0,1-5.65,3c-5.11,0-7.78-4.35-7.78-9.21,0-5.65,3.24-9.61,7.85-9.61a6.47,6.47,0,0,1,5.58,3v-9.93Zm-2.2,16.23c0-5.69-3.42-7.23-5.51-7.23-3.09,0-5.61,2.48-5.61,7.56,0,4.21,2.3,7.09,5.4,7.09C247.73,256.1,250.82,254.51,250.82,248.68Z" transform="translate(-201.04 -221.29)"/><path class="cls-1" d="M260.69,242.74a5.23,5.23,0,0,1,5.11-3.31c.28,0,.57,0,.9.07v2.23a4.77,4.77,0,0,0-1.44-.21c-2.74,0-4.57,3.24-4.57,6.19V257.9h-2.2V239.65h2.2Z" transform="translate(-201.04 -221.29)"/><path class="cls-1" d="M282.86,257a12.74,12.74,0,0,1-5,1.08c-5.36,0-9.14-3.64-9.14-9.22,0-5.94,3.35-9.43,8-9.43,4.35,0,7.3,2.95,7.3,8.39a13,13,0,0,1-.14,1.94H271c.33,4.11,3,6.23,6.95,6.23a9.86,9.86,0,0,0,4.93-1.23Zm-1.12-10.08c0-3.35-2-5.44-5.11-5.44-2.95,0-5.29,2.13-5.65,6.27h10.76Z" transform="translate(-201.04 -221.29)"/><path class="cls-1" d="M288.87,240.62a11,11,0,0,1,5.15-1.26c4.82,0,6.7,2.63,6.7,7V257.9h-2.2v-2.13c-.61.94-2.16,2.31-5.25,2.31-3.39,0-5.73-2.24-5.73-5.33,0-3.56,3-5.54,7.42-5.54h3.56v-.83c0-3.1-1.12-4.93-4.53-4.93a9.85,9.85,0,0,0-5.12,1.54Zm6.09,8.6c-3.64,0-5.08,1.66-5.08,3.46s1.26,3.38,3.89,3.38c3,0,4.75-1.83,4.75-4.21v-2.63Z" transform="translate(-201.04 -221.29)"/><path class="cls-1" d="M315.51,242.49a10,10,0,0,0-4.57-1c-2.12,0-3.42,1.11-3.42,2.66,0,2,1.84,2.74,3.85,3.57,2.74,1.11,5.22,2.44,5.22,5.47s-2.19,4.89-5.87,4.89A12.37,12.37,0,0,1,305.4,257v-2.27a10.82,10.82,0,0,0,5.18,1.37c2.56,0,3.74-1.19,3.74-2.73,0-2.05-1.58-2.88-4.24-3.93-2.31-.9-4.79-2.19-4.79-5.18s2.52-4.82,5.69-4.82a10.74,10.74,0,0,1,4.53.82Z" transform="translate(-201.04 -221.29)"/><path class="cls-1" d="M331.06,257.9l-6.55-9.43v9.43h-4.32v-25h4.32v15.33l6.45-8.56h5l-6.7,8.71,6.84,9.54Z" transform="translate(-201.04 -221.29)"/><path class="cls-1" d="M343.3,242.78a5.8,5.8,0,0,1,5.62-3.35c3.6,0,5.9,2.27,5.9,6.34V257.9H350.5V246.67c0-2.45-1.29-3.64-3.2-3.64-2.09,0-4,1.66-4,5.08v9.79H339V239.65h4.32Z" transform="translate(-201.04 -221.29)"/><path class="cls-1" d="M375,239.65V257.9h-4.35v-3c-.94,2-2.88,3.17-5.62,3.17-3.63,0-5.87-2.16-5.87-6.09V239.65h4.32V251c0,2.34,1.23,3.52,3.17,3.52,2.38,0,4-1.54,4-5.07v-9.79Z" transform="translate(-201.04 -221.29)"/><path class="cls-1" d="M384.92,252.17a2.11,2.11,0,0,0,2.3,2.34,4.87,4.87,0,0,0,2.52-.75v3.7a8.47,8.47,0,0,1-3.24.62c-4,0-5.9-2.13-5.9-6v-9.21h-2.74v-3.24h2.74v-4.39h4.32v4.39h4.53v3.24h-4.53Z" transform="translate(-201.04 -221.29)"/><path class="cls-1" d="M397.63,242.74c.93-2.09,2.77-3.31,5.58-3.31,3.42,0,5.94,2.12,5.94,6.52V257.9h-4.32V246.7c0-2.37-1.34-3.67-3.17-3.67-1.62,0-4,1-4,5.08v9.79h-4.32V232.45h4.32Z" transform="translate(-201.04 -221.29)"/><path class="cls-2" d="M422.6,243.17l-8.56,12a3.15,3.15,0,0,0,.73,4.41l7.72,5.51a3.17,3.17,0,0,0,4.41-.74l8.56-12a3.15,3.15,0,0,0-.73-4.41L427,242.43A3.17,3.17,0,0,0,422.6,243.17Zm8.39,7.28a.54.54,0,0,1,.13.74L425,259.76a1.58,1.58,0,0,1-2.21.37l-4.28-3.06a.53.53,0,0,1-.13-.73l6.12-8.58a1.58,1.58,0,0,1,2.21-.37Z" transform="translate(-201.04 -221.29)"/><path class="cls-2" d="M437.26,222.62l-8.56,12a3.16,3.16,0,0,0,.73,4.41l7.72,5.51a3.17,3.17,0,0,0,4.41-.74l8.56-12a3.14,3.14,0,0,0-.73-4.4l-7.72-5.51A3.17,3.17,0,0,0,437.26,222.62Zm8.39,7.28a.53.53,0,0,1,.13.73l-6.12,8.58a1.58,1.58,0,0,1-2.2.37l-4.29-3.06a.53.53,0,0,1-.12-.74l6.11-8.57a1.59,1.59,0,0,1,2.21-.37Z" transform="translate(-201.04 -221.29)"/><rect class="cls-2" x="422.65" y="241.38" width="18.86" height="4.21" rx="2.11" transform="translate(-218.1 232.55) rotate(-54.5)"/></svg>